 <svg width="69" height="69" viewBox="0 0 69 69" fill="none" xmlns="http://www.w3.org/2000/svg">
                            <g opacity="0.7" clip-path="url(#clip0_1457_1948)">
                            <path d="M38.4683 -2.40635e-05C30.8146 -2.40635e-05 23.4437 2.87844 17.8199 8.06967C12.196 13.2443 8.71859 20.3489 8.06969 27.9694C7.42079 35.5898 9.66699 43.177 14.3591 49.2168L0 63.5925L5.39088 68.9833L19.7666 54.6076C25.8064 59.2831 33.3935 61.5293 41.014 60.897C48.6344 60.2647 55.7391 56.7873 60.9137 51.1635C66.0883 45.5396 68.9834 38.1688 68.9834 30.5151C68.9834 29.6665 68.9501 28.8179 68.8835 27.9527C68.2513 20.3323 64.7572 13.2276 59.1334 8.05303C53.5095 2.87844 46.1387 -2.40635e-05 38.4849 -0.0166626L38.4517 0.033253V-0.0166626L38.4683 -2.40635e-05ZM25.1575 26.7048H34.6414V17.2209H42.2785V26.7048H51.7625V34.3419H42.2785V43.8259H34.6414V34.3419H25.1575V26.7048ZM61.3629 30.5151C61.3629 36.5881 58.9503 42.4116 54.6576 46.7043C50.3648 50.9971 44.5414 53.4097 38.4683 53.4097C33.7097 53.4097 29.0842 51.9288 25.2074 49.1668C23.0277 47.4697 21.2474 45.6728 19.8165 43.776C16.5553 39.1837 15.1078 33.5599 15.7401 27.9694C16.3723 22.3788 19.0345 17.2209 23.2274 13.4606C27.4203 9.70024 32.8445 7.63706 38.4683 7.62043V7.57051L38.5016 7.62043C44.1254 7.62043 49.5496 9.70024 53.7425 13.4606C57.9354 17.2209 60.5975 22.3788 61.2298 27.9694C61.2464 28.1857 61.4295 30.5151 61.3629 30.5151Z" fill="white"/>
                            </g>
                            <defs>
                            <clipPath id="clip0_1457_1948">
                            <rect width="69" height="69" fill="white"/>
                            </clipPath>
                            </defs>
                        </svg>