<svg width="147" height="109" viewBox="0 0 147 109" fill="none" xmlns="http://www.w3.org/2000/svg">
<path d="M79.2105 0.363905L92.4814 13.6787C92.9644 14.1656 92.9644 14.9584 92.4814 15.4452L79.2105 28.7599C78.7273 29.2453 77.9355 29.2453 77.4502 28.7599L64.1799 15.4452C63.6961 14.9584 63.6961 14.1656 64.1799 13.6787L77.4502 0.363905C77.9355 -0.121302 78.7273 -0.121302 79.2105 0.363905ZM79.2125 37.8556L85.328 43.9915C85.8112 44.4785 85.8112 45.2745 85.328 45.7599L79.2125 51.8955C78.7273 52.3826 77.9355 52.3826 77.4502 51.8955L71.3331 45.7599C70.8495 45.2745 70.8495 44.4785 71.3331 43.9915L77.4502 37.8556C77.9355 37.371 78.7273 37.371 79.2125 37.8556ZM64.9771 23.4549L73.8584 32.3658C74.3436 32.8506 74.3436 33.6471 73.8584 34.1319L64.9771 43.0445C64.4919 43.5297 63.7 43.5297 63.2146 43.0445L54.334 34.1319C53.8504 33.6471 53.8504 32.8506 54.334 32.3658L63.2146 23.4549C63.7 22.968 64.4919 22.968 64.9771 23.4549ZM117.399 99.3435C117.399 100.091 117.306 100.791 117.119 101.442C116.933 102.093 116.616 102.661 116.168 103.149C115.721 103.635 115.112 104.022 114.344 104.306C113.575 104.59 112.609 104.733 111.445 104.733H110.819C110.014 104.733 109.226 104.726 108.458 104.71C107.689 104.696 106.94 104.627 106.208 104.507V108.55H102.181V93.5059C103.464 93.355 104.81 93.243 106.22 93.1672C107.63 93.0938 109.015 93.0555 110.372 93.0555H110.999C112.252 93.0555 113.287 93.1985 114.109 93.4821C114.93 93.7665 115.586 94.1534 116.079 94.6402C116.571 95.1271 116.915 95.6993 117.108 96.3559C117.302 97.0149 117.399 97.7127 117.399 98.4451V99.3435H117.399ZM59.3879 108.55L56.3867 103.835C55.5821 103.835 54.8056 103.827 54.0606 103.811C53.3148 103.796 52.583 103.73 51.8685 103.611V108.55H47.837V93.5055C49.1217 93.3546 50.4681 93.2426 51.8782 93.1668C53.288 93.0933 54.6709 93.0551 56.0309 93.0551H56.6566C57.9085 93.0551 58.9471 93.1865 59.7676 93.4488C60.5876 93.71 61.2466 94.0656 61.7358 94.516C62.2288 94.9642 62.5717 95.4879 62.7661 96.0872C62.9608 96.6858 63.057 97.3217 63.057 97.9961V98.8928C63.057 99.8378 62.8719 100.694 62.4985 101.465C62.1251 102.236 61.4599 102.831 60.5066 103.251L63.8585 108.55H59.3879V108.55ZM56.075 96.6477C55.553 96.6477 54.9077 96.663 54.1376 96.6945C53.3709 96.7235 52.6121 96.7771 51.8685 96.8504V100.039C52.5677 100.128 53.2323 100.186 53.8603 100.207C54.4858 100.23 54.9925 100.242 55.3818 100.242C56.277 100.242 56.969 100.202 57.4618 100.118C57.9549 100.035 58.3153 99.9115 58.5476 99.7471C58.7793 99.5834 58.9178 99.3725 58.9621 99.1193C59.0065 98.8641 59.0292 98.5567 59.0292 98.1975C59.0292 98.0042 59.0139 97.8129 58.9832 97.6256C58.9543 97.4383 58.8462 97.27 58.6595 97.1211C58.4728 96.9704 58.1779 96.8545 57.7756 96.7715C57.3711 96.6906 56.8047 96.6477 56.0748 96.6477H56.075ZM45.8496 101.005V108.281C44.7904 108.505 43.7019 108.681 42.5831 108.809C41.4641 108.935 40.3317 109 39.1796 109H38.3767C36.6608 109 35.2372 108.805 34.1126 108.415C32.9858 108.026 32.086 107.498 31.4159 106.832C30.7434 106.165 30.2738 105.382 30.0042 104.486C29.7362 103.587 29.6035 102.629 29.6035 101.613V100.443C29.6035 99.4269 29.7362 98.4683 30.0042 97.5699C30.2738 96.6711 30.7434 95.8903 31.4159 95.2215C32.086 94.557 32.9858 94.0275 34.1126 93.639C35.2372 93.2507 36.6606 93.0557 38.3767 93.0557H39.1796C40.2564 93.0557 41.3153 93.119 42.3576 93.2467C43.4038 93.3745 44.4187 93.5579 45.4026 93.7973V97.4577C44.2992 97.1582 43.1763 96.9456 42.0341 96.8179C40.892 96.6908 39.906 96.6268 39.0701 96.6268C37.726 96.6268 36.6936 96.7353 35.969 96.9533C35.2467 97.1698 34.7155 97.4716 34.3802 97.8616C34.045 98.2499 33.8506 98.7161 33.8005 99.253C33.7464 99.7925 33.7196 100.384 33.7196 101.027C33.7196 101.671 33.7464 102.262 33.8005 102.801C33.8508 103.341 34.0452 103.808 34.3802 104.206C34.7155 104.602 35.2467 104.909 35.969 105.126C36.6936 105.342 37.726 105.452 39.0701 105.452C39.8753 105.452 40.7919 105.408 41.8223 105.317V101.006H45.8498L45.8496 101.005ZM64.6769 100.443C64.6769 99.4267 64.804 98.4681 65.0578 97.5697C65.3101 96.6709 65.7549 95.8901 66.3889 95.2213C67.0229 94.5568 67.8756 94.0273 68.9504 93.6388C70.0251 93.2505 71.3752 93.0555 73.0011 93.0555H73.808C75.4333 93.0555 76.7834 93.2505 77.8585 93.6388C78.9332 94.0271 79.7886 94.5568 80.4203 95.2213C81.0557 95.8903 81.4987 96.6709 81.7528 97.5697C82.0074 98.4681 82.1322 99.4267 82.1322 100.443V101.612C82.1322 102.629 82.0072 103.587 81.7528 104.486C81.4985 105.382 81.0557 106.165 80.4203 106.831C79.7886 107.498 78.933 108.026 77.8585 108.415C76.7834 108.805 75.4333 109 73.808 109H73.0011C71.3752 109 70.0251 108.805 68.9504 108.415C67.8754 108.026 67.0229 107.498 66.3889 106.831C65.7549 106.165 65.3099 105.382 65.0578 104.486C64.8038 103.587 64.6769 102.629 64.6769 101.612V100.443ZM68.7039 101.027C68.7039 101.597 68.7311 102.147 68.7829 102.677C68.8347 103.21 69.0063 103.676 69.2972 104.081C69.5898 104.486 70.0523 104.806 70.6857 105.046C71.3197 105.286 72.2271 105.407 73.4037 105.407C74.5846 105.407 75.4899 105.286 76.1253 105.046C76.7593 104.806 77.221 104.486 77.5121 104.081C77.8032 103.676 77.9726 103.21 78.0265 102.677C78.0805 102.147 78.1051 101.597 78.1051 101.027C78.1051 100.459 78.0805 99.9115 78.0265 99.3878C77.9726 98.8641 77.8032 98.4006 77.5121 97.9961C77.2212 97.5925 76.7593 97.2698 76.1253 97.0299C75.4899 96.7904 74.5846 96.6705 73.4037 96.6705C72.2271 96.6705 71.3197 96.7904 70.6857 97.0299C70.0523 97.2698 69.59 97.5925 69.2972 97.9961C69.0063 98.4004 68.8347 98.8641 68.7829 99.3878C68.7311 99.9115 68.7039 100.459 68.7039 101.027ZM100.17 93.5057V102.284C100.17 103.212 100.051 104.082 99.812 104.89C99.5727 105.698 99.1628 106.409 98.5808 107.023C97.9994 107.636 97.2154 108.119 96.2311 108.47C95.2474 108.824 94.0085 109 92.5159 109H91.711C90.2184 109 88.9795 108.824 87.9935 108.47C87.0092 108.119 86.2273 107.636 85.6459 107.023C85.0641 106.409 84.6519 105.698 84.4149 104.89C84.1762 104.082 84.0565 103.212 84.0565 102.284V93.5057H88.0841V101.701C88.0841 102.194 88.1072 102.661 88.1514 103.104C88.1978 103.547 88.3424 103.939 88.5885 104.283C88.8332 104.627 89.2302 104.901 89.7736 105.102C90.3185 105.305 91.0985 105.407 92.1133 105.407C93.1129 105.407 93.8872 105.305 94.442 105.102C94.9928 104.901 95.3914 104.627 95.638 104.283C95.8843 103.939 96.0289 103.547 96.0733 103.104C96.1197 102.661 96.1407 102.194 96.1407 101.701V93.5057H100.17H100.17ZM110.192 101.138C110.985 101.138 111.595 101.083 112.027 100.971C112.46 100.859 112.776 100.702 112.978 100.501C113.181 100.298 113.296 100.063 113.325 99.7921C113.356 99.5234 113.37 99.2234 113.37 98.8933C113.37 98.5645 113.356 98.2617 113.325 97.9852C113.296 97.7069 113.184 97.4714 112.99 97.278C112.795 97.083 112.497 96.9301 112.094 96.8177C111.692 96.7038 111.11 96.6479 110.349 96.6479C109.872 96.6479 109.25 96.6632 108.481 96.6947C107.712 96.7237 106.956 96.7773 106.208 96.8506V100.938C106.911 101.027 107.574 101.083 108.2 101.106C108.828 101.127 109.491 101.139 110.192 101.139L110.192 101.138ZM127.227 74.8089C127.227 73.4543 127.396 72.1784 127.738 70.9827C128.081 69.7863 128.662 68.7444 129.487 67.8574C130.311 66.9707 131.426 66.2687 132.834 65.7512C134.24 65.2329 136.008 64.9723 138.139 64.9723H139.224C140.59 64.9723 141.917 65.0594 143.202 65.2277C144.489 65.3975 145.754 65.6413 147 65.9601V70.8316C146.297 70.635 145.588 70.4646 144.876 70.3238C144.161 70.1845 143.458 70.0701 142.765 69.9813C142.072 69.8904 141.409 69.8268 140.775 69.7863C140.142 69.7474 139.576 69.7262 139.073 69.7262C137.504 69.7262 136.295 69.8713 135.442 70.1595C134.587 70.4493 133.964 70.8529 133.571 71.3713C133.179 71.891 132.947 72.5073 132.878 73.2243C132.807 73.9414 132.772 74.7296 132.772 75.5858C132.772 76.4415 132.807 77.2302 132.878 77.9472C132.947 78.6659 133.179 79.2882 133.571 79.8158C133.964 80.3432 134.587 80.7531 135.442 81.0412C136.295 81.3308 137.504 81.4739 139.073 81.4739C139.575 81.4739 140.142 81.4548 140.775 81.4159C141.409 81.3753 142.071 81.3114 142.765 81.2209C143.458 81.1317 144.161 81.0123 144.876 80.8616C145.588 80.7125 146.297 80.5382 147 80.3395V85.24C145.754 85.5397 144.489 85.7736 143.202 85.944C141.917 86.1115 140.59 86.1972 139.224 86.1972H138.139C136.008 86.1972 134.24 85.9401 132.834 85.4203C131.426 84.902 130.311 84.2009 129.487 83.3133C128.662 82.4265 128.081 81.3853 127.738 80.1888C127.396 78.9946 127.227 77.7187 127.227 76.3624V74.8089ZM0 74.8029C0 73.4481 0.173507 72.1728 0.514126 70.9782C0.854951 69.7803 1.43695 68.7405 2.26137 67.8535C3.08744 66.9667 4.20048 66.2634 5.60876 65.745C7.01456 65.2275 8.78285 64.9682 10.9128 64.9682H11.9992C13.3669 64.9682 14.692 65.053 15.9767 65.2213C17.2637 65.3917 18.5285 65.6349 19.7749 65.9539V70.8275C19.0718 70.6288 18.3631 70.4584 17.6507 70.3191C16.9377 70.18 16.2329 70.0643 15.5393 69.9757C14.8461 69.8865 14.1853 69.8204 13.5499 69.7801C12.9181 69.7418 12.3498 69.7221 11.849 69.7221C10.2792 69.7221 9.06776 69.8651 8.21446 70.1556C7.36096 70.4451 6.73707 70.8474 6.34611 71.3648C5.95536 71.8826 5.72429 72.5011 5.65291 73.2181C5.58359 73.9368 5.54687 74.7232 5.54687 75.5818C5.54687 76.4374 5.58359 77.224 5.65291 77.9433C5.72429 78.6597 5.95536 79.2819 6.34611 79.8096C6.73707 80.3393 7.36096 80.7469 8.21446 81.0371C9.06776 81.3246 10.2792 81.4699 11.849 81.4699C12.3495 81.4699 12.9181 81.4501 13.5499 81.4097C14.1853 81.3691 14.8459 81.3056 15.5393 81.217C16.2327 81.1261 16.9375 81.006 17.6507 80.857C18.3631 80.7061 19.0718 80.5326 19.7749 80.3333V85.2361C18.5285 85.5339 17.2635 85.7695 15.9767 85.9399C14.692 86.1073 13.3669 86.193 11.9992 86.193H10.9128C8.78305 86.193 7.01477 85.9339 5.60876 85.4155C4.20069 84.898 3.08744 84.1947 2.26137 83.3077C1.43695 82.4203 0.854951 81.3791 0.514126 80.1847C0.173507 78.9884 0 77.7131 0 76.3585V74.8027V74.8029ZM41.7162 70.2847H27.8179V73.3108H38.7001V78.1538H27.8179V80.8746H41.7162V85.7175H22.3921V65.4438H41.7162V70.2845V70.2847ZM59.8635 85.7175L55.8243 79.4099C54.7379 79.4099 53.6942 79.4006 52.6888 79.3807C51.6853 79.3594 50.6992 79.2691 49.7363 79.1103V85.7175H44.3089V65.5945C46.0363 65.3935 47.8506 65.2449 49.7499 65.1443C51.649 65.0439 53.5135 64.9951 55.3412 64.9951H56.1864C57.874 64.9951 59.2701 65.1694 60.3756 65.5188C61.4812 65.8711 62.3652 66.3443 63.0279 66.9452C63.6924 67.5461 64.1525 68.2478 64.4147 69.0477C64.6744 69.8496 64.8077 70.6998 64.8077 71.6004V72.8027C64.8077 74.0643 64.5554 75.2103 64.0526 76.2422C63.5498 77.272 62.6561 78.0685 61.3714 78.6289L65.8843 85.7173H59.8633L59.8635 85.7175ZM55.4028 69.7999C54.6997 69.7999 53.8287 69.819 52.7947 69.8596C51.7606 69.8978 50.7398 69.9697 49.7363 70.0699V74.3349C50.6798 74.4529 51.5735 74.5305 52.4175 74.559C53.2611 74.5903 53.9446 74.604 54.4666 74.604C55.6719 74.604 56.6061 74.5499 57.2712 74.4398C57.9335 74.3297 58.421 74.1633 58.7327 73.9451C59.0428 73.7228 59.2295 73.4423 59.2914 73.1022C59.3514 72.7625 59.3797 72.3526 59.3797 71.8712C59.3797 71.6105 59.3607 71.3553 59.3203 71.1059C59.2798 70.855 59.1338 70.6306 58.8831 70.43C58.6329 70.2307 58.2359 70.0738 57.6929 69.9637C57.1517 69.8537 56.387 69.8001 55.4031 69.8001L55.4028 69.7999ZM66.4947 85.7175L76.0133 65.4455H81.4392L91.0038 85.7175H85.5376L83.7889 81.7829H73.6306L71.9131 85.7175H66.4947ZM81.7995 77.2455L78.725 70.3176L75.6498 77.2455H81.7997H81.7995ZM102.937 81.5743L97.2709 73.6242V85.7175H91.8456V65.4592H97.2709L104.324 75.8311L111.378 65.4592H116.804V85.7175H111.378V73.6242L105.711 81.5743H102.938H102.937ZM124.87 85.7175H119.444V65.4538H124.87V85.7175ZM124.87 65.4538V85.7175V65.4538Z" fill="white"/>
</svg>
