<svg width="177" height="45" viewBox="0 0 177 45" fill="none" xmlns="http://www.w3.org/2000/svg">
<path d="M21.7161 0.313346L33.1346 11.7783C33.5502 12.1975 33.5502 12.8801 33.1346 13.2994L21.7161 24.7641C21.3004 25.1821 20.6191 25.1821 20.2016 24.7641L8.78366 13.2994C8.36739 12.8801 8.36739 12.1975 8.78366 11.7783L20.2016 0.313346C20.6191 -0.104449 21.3004 -0.104449 21.7161 0.313346ZM21.7179 32.5962L26.9797 37.8795C27.3955 38.2989 27.3955 38.9843 26.9797 39.4022L21.7179 44.6854C21.3004 45.1048 20.6191 45.1048 20.2016 44.6854L14.9384 39.4022C14.5223 38.9843 14.5223 38.2989 14.9384 37.8795L20.2016 32.5962C20.6191 32.1789 21.3004 32.1789 21.7179 32.5962ZM9.46956 20.1962L17.1111 27.8691C17.5286 28.2865 17.5286 28.9724 17.1111 29.3898L9.46956 37.0641C9.05205 37.4819 8.37076 37.4819 7.95307 37.0641L0.312066 29.3898C-0.104022 28.9724 -0.104022 28.2865 0.312066 27.8691L7.95307 20.1962C8.37076 19.777 9.05205 19.777 9.46956 20.1962ZM126.978 33.2033C126.978 33.8471 126.898 34.4494 126.738 35.0103C126.577 35.5712 126.305 36.0603 125.919 36.4797C125.535 36.8989 125.011 37.2321 124.35 37.4768C123.689 37.7212 122.857 37.8443 121.856 37.8443H121.317C120.625 37.8443 119.947 37.8377 119.286 37.8245C118.624 37.8126 117.98 37.7529 117.35 37.6495V41.1311H113.885V28.1768C114.989 28.0468 116.147 27.9504 117.36 27.8852C118.573 27.8219 119.764 27.7889 120.933 27.7889H121.472C122.55 27.7889 123.44 27.9121 124.148 28.1563C124.854 28.4012 125.419 28.7343 125.843 29.1535C126.266 29.5727 126.562 30.0654 126.728 30.6308C126.895 31.1983 126.979 31.7991 126.979 32.4297L126.978 33.2033ZM77.0652 41.1309L74.4829 37.0704C73.7906 37.0704 73.1224 37.0638 72.4814 37.0501C71.8397 37.0369 71.2101 36.9804 70.5954 36.8775V41.1307H67.1266V28.1764C68.232 28.0465 69.3904 27.95 70.6037 27.8848C71.8167 27.8215 73.0065 27.7886 74.1767 27.7886H74.7151C75.7922 27.7886 76.6858 27.9017 77.3918 28.1276C78.0974 28.3525 78.6644 28.6587 79.0852 29.0466C79.5095 29.4325 79.8045 29.8834 79.9717 30.3994C80.1393 30.9149 80.222 31.4624 80.222 32.0431V32.8153C80.222 33.6289 80.0628 34.3663 79.7415 35.0303C79.4202 35.694 78.8479 36.2067 78.0276 36.5676L80.9117 41.1307L77.0652 41.1309ZM74.2147 30.8821C73.7656 30.8821 73.2103 30.8953 72.5477 30.9224C71.888 30.9473 71.2351 30.9935 70.5954 31.0566V33.8022C71.197 33.8787 71.7687 33.9287 72.3091 33.9469C72.8473 33.9669 73.2832 33.9772 73.6182 33.9772C74.3884 33.9772 74.9838 33.9423 75.4079 33.8706C75.8322 33.799 76.1423 33.6924 76.3421 33.5509C76.5415 33.4099 76.6606 33.2283 76.6988 33.0103C76.7369 32.7905 76.7565 32.5258 76.7565 32.2166C76.7565 32.0501 76.7433 31.8854 76.7169 31.7241C76.692 31.5628 76.599 31.4179 76.4384 31.2897C76.2777 31.16 76.024 31.0602 75.6779 30.9887C75.3298 30.919 74.8427 30.8821 74.2147 30.8821ZM65.4166 34.6344V40.8994C64.5053 41.0922 63.5687 41.2435 62.6061 41.3535C61.6433 41.4621 60.6689 41.5182 59.6777 41.5182H58.9868C57.5104 41.5182 56.2856 41.3503 55.318 41.0145C54.3484 40.6796 53.5743 40.2253 52.9977 39.6511C52.419 39.077 52.015 38.4031 51.783 37.6315C51.5524 36.8576 51.4383 36.0322 51.4383 35.1572V34.1501C51.4383 33.2751 51.5524 32.4497 51.783 31.6762C52.015 30.9022 52.419 30.2299 52.9977 29.654C53.5743 29.0819 54.3484 28.6259 55.318 28.2914C56.2856 27.957 57.5102 27.7891 58.9868 27.7891H59.6777C60.6041 27.7891 61.5153 27.8436 62.4121 27.9536C63.3122 28.0636 64.1854 28.2215 65.032 28.4277V31.5795C64.0826 31.3216 63.1164 31.1386 62.1337 31.0286C61.151 30.9192 60.3027 30.8641 59.5834 30.8641C58.4269 30.8641 57.5386 30.9575 56.9152 31.1452C56.2937 31.3316 55.8367 31.5915 55.5482 31.9273C55.2597 32.2617 55.0925 32.6631 55.0494 33.1254C55.0029 33.5899 54.9798 34.099 54.9798 34.6531C54.9798 35.2074 55.0029 35.7163 55.0494 36.1804C55.0927 36.6451 55.2599 37.0474 55.5482 37.3903C55.8367 37.7313 56.2937 37.9958 56.9152 38.1823C57.5386 38.3685 58.4269 38.4633 59.5834 38.4633C60.2762 38.4633 61.0649 38.425 61.9514 38.3473V34.6348L65.4166 34.6344ZM81.6159 34.1499C81.6159 33.275 81.7252 32.4495 81.9436 31.676C82.1606 30.9021 82.5434 30.2297 83.0888 29.6538C83.6343 29.0817 84.368 28.6257 85.2928 28.2912C86.2175 27.9568 87.3791 27.7889 88.7781 27.7889H89.4724C90.8708 27.7889 92.0324 27.9568 92.9575 28.2912C93.8821 28.6256 94.6181 29.0817 95.1616 29.6538C95.7084 30.2299 96.0895 30.9021 96.3082 31.676C96.5272 32.4495 96.6346 33.275 96.6346 34.1499V35.157C96.6346 36.032 96.527 36.8574 96.3082 37.6313C96.0893 38.4029 95.7084 39.077 95.1616 39.651C94.6181 40.2251 93.8819 40.6792 92.9575 41.0143C92.0324 41.3501 90.8708 41.518 89.4724 41.518H88.7781C87.3791 41.518 86.2175 41.3501 85.2928 41.0143C84.3678 40.6794 83.6343 40.2251 83.0888 39.651C82.5434 39.0769 82.1605 38.4029 81.9436 37.6313C81.725 36.8574 81.6159 36.032 81.6159 35.157V34.1499ZM85.0807 34.6526C85.0807 35.1438 85.1041 35.6176 85.1487 36.0739C85.1933 36.5328 85.3409 36.9335 85.5912 37.283C85.8429 37.6311 86.2409 37.9071 86.7859 38.1138C87.3314 38.32 88.1121 38.4247 89.1244 38.4247C90.1405 38.4247 90.9194 38.32 91.4662 38.1138C92.0117 37.9071 92.409 37.6311 92.6594 37.283C92.9099 36.9335 93.0556 36.5327 93.102 36.0739C93.1485 35.6176 93.1696 35.1436 93.1696 34.6526C93.1696 34.1635 93.1485 33.6924 93.102 33.2414C93.0556 32.7905 92.9099 32.3914 92.6594 32.0431C92.4091 31.6956 92.0117 31.4177 91.4662 31.2111C90.9194 31.0049 90.1405 30.9017 89.1244 30.9017C88.1121 30.9017 87.3314 31.0049 86.7859 31.2111C86.2409 31.4177 85.8431 31.6956 85.5912 32.0431C85.3409 32.3912 85.1933 32.7905 85.1487 33.2414C85.1041 33.6924 85.0807 34.1637 85.0807 34.6526ZM112.155 28.1766V35.7356C112.155 36.5346 112.052 37.2832 111.847 37.9789C111.641 38.6747 111.288 39.2868 110.787 39.8162C110.287 40.3434 109.612 40.7594 108.765 41.0623C107.919 41.3665 106.853 41.518 105.569 41.518H104.876C103.592 41.518 102.526 41.3665 101.678 41.0623C100.831 40.7594 100.158 40.3434 99.6578 39.8162C99.1572 39.2868 98.8026 38.6747 98.5986 37.9789C98.3932 37.2832 98.2903 36.5346 98.2903 35.7356V28.1766H101.756V35.2333C101.756 35.6578 101.776 36.0603 101.814 36.4412C101.853 36.8225 101.978 37.1601 102.19 37.4563C102.4 37.7527 102.742 37.9889 103.209 38.1619C103.678 38.3364 104.349 38.4247 105.222 38.4247C106.083 38.4247 106.749 38.3364 107.226 38.1619C107.7 37.9889 108.043 37.7527 108.255 37.4563C108.467 37.1601 108.591 36.8225 108.63 36.4412C108.67 36.0601 108.688 35.6578 108.688 35.2333V28.1766H112.155ZM120.777 34.7488C121.46 34.7488 121.985 34.7009 122.356 34.6046C122.729 34.5078 123.001 34.3731 123.175 34.2C123.349 34.0255 123.449 33.8225 123.473 33.5896C123.5 33.3582 123.512 33.0999 123.512 32.8156C123.512 32.5326 123.5 32.2718 123.473 32.0337C123.449 31.7941 123.352 31.5913 123.185 31.4248C123.017 31.2569 122.761 31.1252 122.414 31.0284C122.068 30.9304 121.567 30.8823 120.913 30.8823C120.502 30.8823 119.967 30.8955 119.305 30.9225C118.644 30.9475 117.993 30.9937 117.35 31.0568V34.5766C117.955 34.6529 118.525 34.7012 119.064 34.7214C119.604 34.7392 120.174 34.7488 120.777 34.7488ZM159.987 12.0774C159.987 10.911 160.133 9.81235 160.427 8.78284C160.722 7.75261 161.222 6.85553 161.931 6.09177C162.641 5.32819 163.6 4.72379 164.811 4.27819C166.021 3.83187 167.542 3.60747 169.375 3.60747H170.31C171.485 3.60747 172.627 3.68251 173.732 3.82742C174.839 3.97357 175.928 4.18354 177 4.45803V8.65273C176.395 8.4834 175.785 8.33671 175.172 8.21551C174.557 8.09555 173.953 7.99698 173.356 7.92052C172.76 7.84227 172.189 7.78755 171.644 7.75262C171.099 7.71911 170.612 7.70093 170.179 7.70093C168.83 7.70093 167.789 7.82587 167.055 8.07398C166.319 8.32352 165.784 8.67109 165.446 9.1174C165.108 9.56496 164.909 10.0956 164.849 10.713C164.788 11.3304 164.758 12.0092 164.758 12.7464C164.758 13.4832 164.788 14.1623 164.849 14.7797C164.909 15.3986 165.108 15.9344 165.446 16.3887C165.784 16.8429 166.319 17.1958 167.055 17.4439C167.789 17.6932 168.83 17.8164 170.179 17.8164C170.612 17.8164 171.099 17.8 171.644 17.7665C172.189 17.7316 172.759 17.6765 173.356 17.5986C173.953 17.5218 174.557 17.4189 175.172 17.2892C175.785 17.1608 176.395 17.0107 177 16.8396V21.0593C175.928 21.3174 174.839 21.5188 173.732 21.6655C172.627 21.8097 171.485 21.8835 170.31 21.8835H169.375C167.543 21.8835 166.021 21.6621 164.811 21.2145C163.6 20.7682 162.641 20.1645 161.931 19.4002C161.222 18.6367 160.722 17.7401 160.427 16.7099C160.133 15.6816 159.987 14.5829 159.987 13.4151V12.0774ZM50.5194 12.0723C50.5194 10.9057 50.6687 9.80754 50.9618 8.77892C51.255 7.74745 51.7558 6.85214 52.4651 6.08839C53.1759 5.32481 54.1335 4.71915 55.3452 4.27284C56.5548 3.82724 58.0763 3.60391 59.9089 3.60391H60.8437C62.0204 3.60391 63.1606 3.67698 64.2659 3.82189C65.3733 3.96858 66.4616 4.17801 67.5339 4.45268V8.64916C66.929 8.47805 66.3192 8.33136 65.7063 8.2114C65.0928 8.09163 64.4864 7.99199 63.8896 7.9157C63.2932 7.83888 62.7246 7.78203 62.1779 7.74727C61.6343 7.7143 61.1453 7.69736 60.7145 7.69736C59.3638 7.69736 58.3214 7.82053 57.5872 8.0706C56.8529 8.31995 56.3161 8.66627 55.9797 9.11187C55.6435 9.55765 55.4447 10.0902 55.3832 10.7077C55.3236 11.3265 55.292 12.0036 55.292 12.743C55.292 13.4796 55.3236 14.157 55.3832 14.7763C55.4447 15.3932 55.6435 15.929 55.9797 16.3834C56.3161 16.8395 56.8529 17.1904 57.5872 17.4403C58.3214 17.6879 59.3638 17.813 60.7145 17.813C61.1451 17.813 61.6343 17.7959 62.1779 17.7611C62.7246 17.7262 63.293 17.6715 63.8896 17.5952C64.4862 17.517 65.0926 17.4136 65.7063 17.2852C66.3192 17.1553 66.929 17.0059 67.5339 16.8343V21.0559C66.4616 21.3124 65.3731 21.5152 64.2659 21.6619C63.1606 21.8061 62.0204 21.8799 60.8437 21.8799H59.9089C58.0765 21.8799 56.555 21.6568 55.3452 21.2104C54.1337 20.7648 53.1759 20.1592 52.4651 19.3954C51.7558 18.6313 51.255 17.7348 50.9618 16.7063C50.6687 15.6763 50.5194 14.5781 50.5194 13.4117V12.0723ZM86.4125 8.18182H74.4542V10.7875H83.8175V14.9576H74.4542V17.3004H86.4125V21.4705H69.7859V4.0135H86.4125V8.18182ZM102.027 21.4705L98.5513 16.0392C97.6166 16.0392 96.7185 16.0311 95.8535 16.014C94.9901 15.9957 94.1416 15.918 93.3131 15.7813V21.4705H88.6433V4.14326C90.1296 3.97019 91.6907 3.84221 93.3248 3.75559C94.9588 3.66914 96.563 3.62708 98.1356 3.62708H98.8629C100.315 3.62708 101.516 3.77715 102.467 4.07802C103.419 4.38138 104.179 4.78884 104.749 5.30627C105.321 5.8237 105.717 6.42794 105.943 7.11666C106.166 7.80716 106.281 8.53919 106.281 9.31471V10.3499C106.281 11.4363 106.064 12.423 105.631 13.3116C105.198 14.1983 104.429 14.8842 103.324 15.3667L107.207 21.4703L102.027 21.4705ZM98.1887 7.76438C97.5837 7.76438 96.8343 7.78078 95.9446 7.81571C95.0549 7.84869 94.1766 7.91054 93.3131 7.99681V11.6693C94.1249 11.7709 94.8939 11.8377 95.6201 11.8623C96.3459 11.8892 96.934 11.901 97.3831 11.901C98.4202 11.901 99.2239 11.8544 99.7962 11.7596C100.366 11.6648 100.786 11.5215 101.054 11.3336C101.321 11.1422 101.481 10.9007 101.534 10.6078C101.586 10.3153 101.61 9.96244 101.61 9.54785C101.61 9.32345 101.594 9.10367 101.559 8.88889C101.524 8.67287 101.399 8.47966 101.183 8.30694C100.968 8.1353 100.626 8.00019 100.159 7.90537C99.6935 7.81072 99.0352 7.76438 98.1887 7.76438ZM107.732 21.4705L115.922 4.01492H120.591L128.82 21.4705H124.117L122.612 18.0825H113.872L112.394 21.4705H107.732ZM120.901 14.1755L118.255 8.21015L115.609 14.1755H120.901ZM139.088 17.9028L134.212 11.0574V21.4705H129.544V4.02669H134.212L140.281 12.9576L146.35 4.02669H151.019V21.4705H146.35V11.0574L141.475 17.9028H139.088ZM157.959 21.4705H153.29V4.02205H157.959V21.4705Z" fill="#262626"/>
</svg>
